<mxfile host="app.diagrams.net" modified="2023-09-26T13:40:51.646Z" agent="Mozilla/5.0 (Windows NT 10.0; Win64; x64; rv:109.0) Gecko/20100101 Firefox/117.0" version="21.8.2" etag="BCUz-YHCK8AhrwPeaywG" type="github">
  <diagram name="PÃ¡gina-1" id="TmImRVQX_AYQPsEHZoxZ">
    <mxGraphModel>
      <root>
        <mxCell id="0" />
        <mxCell id="1" parent="0" />
      </root>
    </mxGraphModel>
  </diagram>
</mxfile>
